<?xml version="1.0" standalone="no"?>
<!DOCTYPE svg PUBLIC "-//W3C//DTD SVG 20010904//EN"
 "http://www.w3.org/TR/2001/REC-SVG-20010904/DTD/svg10.dtd">
<svg version="1.0" xmlns="http://www.w3.org/2000/svg"
 width="700.000000pt" height="700.000000pt" viewBox="0 0 700.000000 700.000000"
 preserveAspectRatio="xMidYMid meet">
<metadata>
Created by potrace 1.11, written by Peter Selinger 2001-2013
</metadata>
<g transform="translate(0.000000,700.000000) scale(0.100000,-0.100000)"
fill="#000000" stroke="none">
<path d="M850 6489 c-96 -25 -167 -68 -240 -146 -64 -68 -111 -157 -129 -241
-8 -38 -11 -781 -11 -2610 0 -2819 -4 -2619 63 -2746 61 -118 177 -208 316
-250 50 -15 290 -16 2635 -16 2119 0 2590 3 2631 14 184 49 327 196 370 379
13 58 15 360 13 2649 l-3 2583 -22 60 c-63 165 -192 283 -357 325 -78 20 -103
20 -2635 19 -2503 0 -2558 -1 -2631 -20z m2100 -1274 c-42 -219 -234 -375
-521 -422 -170 -28 -303 5 -399 98 -135 131 -111 384 46 488 91 60 182 83 464
116 162 19 287 48 361 84 l54 26 3 -165 c2 -95 -2 -190 -8 -225z m-299 -725
c12 -27 23 -50 24 -50 2 0 32 14 67 30 88 41 196 60 344 60 236 0 409 -58 577
-193 l35 -28 54 40 c162 123 356 181 608 181 402 0 661 -141 795 -433 86 -188
97 -324 93 -1162 l-3 -630 -390 0 -390 0 -5 700 c-6 770 -6 769 -68 828 -56
54 -203 61 -287 14 -50 -28 -90 -86 -112 -162 -15 -53 -18 -132 -23 -720 l-5
-660 -387 -3 -386 -2 -4 667 c-5 722 -5 727 -60 825 -36 63 -78 83 -173 83
-188 -2 -255 -91 -275 -365 -5 -69 -10 -393 -10 -720 0 -338 -5 -625 -10 -665
-34 -239 -123 -425 -281 -589 -74 -78 -213 -186 -238 -186 -6 0 -112 122 -236
271 l-224 270 52 68 c79 101 117 164 135 223 15 48 17 172 19 1206 l4 1152
369 0 369 0 22 -50z"/>
</g>
</svg>
