<svg xmlns="http://www.w3.org/2000/svg" version="1.1" width="350" height="350" style="-webkit-tap-highlight-color: rgba(0, 0, 0, 0);"><desc style="-webkit-tap-highlight-color: rgba(0, 0, 0, 0);">Created with Raphaël</desc><defs style="-webkit-tap-highlight-color: rgba(0, 0, 0, 0);"></defs><path fill="#FA1967" stroke="none" d="M23.487499899686867,50.114499916668166C23.487499899686867,36.0144999072871,34.91549990729019,24.585499899683114,49.02049991667458,24.585499899683114H299.52650008334217C313.6075000927106,24.585499899683114,325.0335001003126,36.0144999072871,325.0335001003126,50.114499916668166V300.62450008333843C325.0335001003126,314.71750009271483,313.6075000927106,326.1445001003175,299.52650008334217,326.1445001003175H49.021499916675225C34.91549990729017,326.1445001003175,23.48849989968751,314.71750009271483,23.48849989968751,300.62450008333843V50.114499916668166Z" style="-webkit-tap-highlight-color: rgba(0, 0, 0, 0);" transform="  "></path><path fill="#ffffff" stroke="none" d="M102.61700000000002,106.52799999999999C106.30500000000002,109.43299999999999,110.66700000000002,110.88499999999999,115.71400000000001,110.88499999999999C121.85100000000001,110.88499999999999,127.79800000000002,109.472,133.554,106.61999999999999C143.251,101.901,148.103,94.189,148.103,83.484V69.46799999999999C145.98000000000002,70.877,143.24200000000002,72.05499999999999,139.89700000000002,72.99399999999999C136.55700000000002,73.93799999999999,133.26600000000002,74.57799999999999,130.05700000000002,74.93999999999998L119.53400000000002,76.19699999999999C113.22500000000002,76.97399999999999,108.46700000000001,78.27599999999998,105.26300000000002,80.07999999999998C99.81000000000002,83.11699999999999,97.09600000000002,87.96399999999998,97.09600000000002,94.61899999999999C97.09600000000002,99.65199999999999,98.93000000000002,103.62799999999999,102.61700000000002,106.52799999999999" style="-webkit-tap-highlight-color: rgba(0, 0, 0, 0);"></path><path fill="#ffffff" stroke="none" d="M217.81900000000002,123.25800000000001C204.65400000000002,123.25800000000001,193.592,127.09200000000001,184.829,134.64800000000002C176.779,127.09200000000003,166.578,123.25800000000002,154.421,123.25800000000002C147.892,123.25800000000002,142.293,124.21600000000002,137.754,126.09000000000002L137.671,126.12400000000002L137.59699999999998,126.14800000000002C136.355,126.70100000000002,135.069,127.38500000000002,133.73899999999998,128.19700000000003L131.46499999999997,122.94000000000003L94.53799999999998,122.91600000000003L94.54799999999999,123.72300000000003V228.90000000000003C94.54799999999999,239.18900000000002,92.78299999999999,243.28700000000003,91.76599999999999,244.78300000000004C90.85099999999998,246.10400000000004,87.496,251.45400000000004,84.03399999999999,255.41500000000005L106.74499999999999,282.86000000000007C115.25399999999999,278.1260000000001,133.57799999999997,264.85300000000007,133.57799999999997,234.93400000000008V234.7880000000001H133.73899999999998V178.7830000000001C133.73899999999998,168.0100000000001,135.813,162.8450000000001,137.55299999999997,160.4150000000001C138.88799999999998,158.5470000000001,141.46999999999997,156.0770000000001,148.35099999999997,156.0770000000001C151.62299999999996,156.0770000000001,159.28599999999997,156.0770000000001,159.28599999999997,175.3310000000001V234.7880000000001H198.32599999999996V178.7830000000001C198.32599999999996,167.8390000000001,200.34199999999996,162.6750000000001,202.04299999999998,160.2830000000001C203.31399999999996,158.4780000000001,205.79899999999998,156.0770000000001,212.44899999999998,156.0770000000001C217.72099999999998,156.0770000000001,219.551,157.82800000000012,220.45,159.14300000000011C221.487,160.64400000000012,223.238,164.74700000000013,223.238,175.03200000000012V234.78800000000012H262.272V169.01300000000012C262.272,139.07400000000013,246.897,123.25800000000012,217.819,123.25800000000012" style="-webkit-tap-highlight-color: rgba(0, 0, 0, 0);"></path></svg>